<?xml version="1.0" encoding="UTF-8"?>
<svg version="1.1" xmlns="http://www.w3.org/2000/svg" width="27" height="66">
<path d="M0 0 C4.62 0.99 9.24 1.98 14 3 C13.4135912 8.70135258 12.33386756 13.94698049 10.71484375 19.4375 C10.49429825 20.20304199 10.27375275 20.96858398 10.04652405 21.75732422 C9.34914037 24.17322027 8.64347771 26.58660303 7.9375 29 C7.45973427 30.64957975 6.98251553 32.29931804 6.50585938 33.94921875 C5.34355073 37.96800495 4.17381706 41.98456085 3 46 C-0.09720845 46.87840996 -1.90645403 46.99435406 -5 46 C-4.50624994 30.54562305 -2.14048324 15.29201048 0 0 Z " fill="#FF0000" transform="translate(13,0)"/>
<path d="M0 0 C1.62853535 0.06420749 3.25449212 0.2012064 4.875 0.375 C6.20144531 0.51035156 6.20144531 0.51035156 7.5546875 0.6484375 C10 1 10 1 13 2 C12.34 6.29 11.68 10.58 11 15 C6.268507 14.50566491 1.65679526 13.98429598 -3 13 C-2.69240822 11.02006459 -2.3787932 9.04106401 -2.0625 7.0625 C-1.88847656 5.96035156 -1.71445312 4.85820313 -1.53515625 3.72265625 C-1 1 -1 1 0 0 Z " fill="#FF0000" transform="translate(4,51)"/>
</svg>
