<?xml version="1.0" encoding="UTF-8"?>
<svg version="1.1" xmlns="http://www.w3.org/2000/svg" width="60" height="60">
<path d="M0 0 C4.08380825 1.19937087 6.29474839 3.46161645 9.09375 6.5078125 C9.59132813 7.02794922 10.08890625 7.54808594 10.6015625 8.08398438 C11.81903612 9.35999039 13.02055992 10.65118194 14.21875 11.9453125 C17.58508271 9.12224962 20.84149651 6.34951267 23.84375 3.1328125 C26.44556942 0.73639987 27.70770407 0.03533932 31.21875 -0.0546875 C33.92512529 0.92261469 34.92131222 1.35043695 36.21875 3.9453125 C36.71875 6.5703125 36.71875 6.5703125 36.21875 9.9453125 C34.67422137 12.11359308 32.98038431 13.99565613 31.140625 15.91796875 C29.01903126 18.15599141 27.11967441 20.51868997 25.21875 22.9453125 C26.00121094 23.69296875 26.78367188 24.440625 27.58984375 25.2109375 C28.6123733 26.20532404 29.6344871 27.20013822 30.65625 28.1953125 C31.17251953 28.68644531 31.68878906 29.17757812 32.22070312 29.68359375 C37.09071018 34.45811048 37.09071018 34.45811048 37.21875 37.9453125 C36.07088059 40.18887544 35.0091733 42.1548892 33.21875 43.9453125 C30.65625 44.4453125 30.65625 44.4453125 27.21875 43.9453125 C25.04831714 42.40227039 23.16899977 40.70751474 21.24609375 38.8671875 C19.00807109 36.74559376 16.64537253 34.84623691 14.21875 32.9453125 C13.25775391 34.01072266 13.25775391 34.01072266 12.27734375 35.09765625 C11.41238281 36.01675781 10.54742188 36.93585937 9.65625 37.8828125 C8.80933594 38.79933594 7.96242188 39.71585938 7.08984375 40.66015625 C3.68713479 43.36843481 1.52092432 43.78803962 -2.78125 43.9453125 C-5.21875 42.9453125 -5.21875 42.9453125 -6.78125 40.9453125 C-7.22265625 37.69140625 -7.22265625 37.69140625 -6.78125 33.9453125 C-4.97405365 31.6247081 -3.43640066 29.92203109 -1.28125 28.0078125 C-0.75660156 27.51474609 -0.23195313 27.02167969 0.30859375 26.51367188 C1.59662365 25.30760751 2.90569263 24.12407991 4.21875 22.9453125 C3.84363281 22.50960938 3.46851563 22.07390625 3.08203125 21.625 C2.01236914 20.3802043 0.94754742 19.13123844 -0.11328125 17.87890625 C-1.14662631 16.68100038 -2.2028367 15.50193838 -3.29296875 14.35546875 C-5.6081135 11.85458172 -6.73483905 10.20315111 -7.34375 6.8203125 C-6.78125 3.9453125 -6.78125 3.9453125 -5.15625 1.5078125 C-2.78125 -0.0546875 -2.78125 -0.0546875 0 0 Z " fill="#FF6605" transform="translate(14.78125,8.0546875)"/>
<path d="M0 0 C4.08380825 1.19937087 6.29474839 3.46161645 9.09375 6.5078125 C9.59132813 7.02794922 10.08890625 7.54808594 10.6015625 8.08398438 C11.81903612 9.35999039 13.02055992 10.65118194 14.21875 11.9453125 C17.58508271 9.12224962 20.84149651 6.34951267 23.84375 3.1328125 C26.44556942 0.73639987 27.70770407 0.03533932 31.21875 -0.0546875 C33.92512529 0.92261469 34.92131222 1.35043695 36.21875 3.9453125 C36.71875 6.5703125 36.71875 6.5703125 36.21875 9.9453125 C34.67422137 12.11359308 32.98038431 13.99565613 31.140625 15.91796875 C29.01903126 18.15599141 27.11967441 20.51868997 25.21875 22.9453125 C26.00121094 23.69296875 26.78367188 24.440625 27.58984375 25.2109375 C28.6123733 26.20532404 29.6344871 27.20013822 30.65625 28.1953125 C31.17251953 28.68644531 31.68878906 29.17757812 32.22070312 29.68359375 C37.09071018 34.45811048 37.09071018 34.45811048 37.21875 37.9453125 C36.07088059 40.18887544 35.0091733 42.1548892 33.21875 43.9453125 C30.65625 44.4453125 30.65625 44.4453125 27.21875 43.9453125 C25.04831714 42.40227039 23.16899977 40.70751474 21.24609375 38.8671875 C19.00807109 36.74559376 16.64537253 34.84623691 14.21875 32.9453125 C13.25775391 34.01072266 13.25775391 34.01072266 12.27734375 35.09765625 C11.41238281 36.01675781 10.54742188 36.93585937 9.65625 37.8828125 C8.80933594 38.79933594 7.96242188 39.71585938 7.08984375 40.66015625 C3.68713479 43.36843481 1.52092432 43.78803962 -2.78125 43.9453125 C-5.21875 42.9453125 -5.21875 42.9453125 -6.78125 40.9453125 C-7.22265625 37.69140625 -7.22265625 37.69140625 -6.78125 33.9453125 C-4.97405365 31.6247081 -3.43640066 29.92203109 -1.28125 28.0078125 C-0.75660156 27.51474609 -0.23195313 27.02167969 0.30859375 26.51367188 C1.59662365 25.30760751 2.90569263 24.12407991 4.21875 22.9453125 C3.84363281 22.50960938 3.46851563 22.07390625 3.08203125 21.625 C2.01236914 20.3802043 0.94754742 19.13123844 -0.11328125 17.87890625 C-1.14662631 16.68100038 -2.2028367 15.50193838 -3.29296875 14.35546875 C-5.6081135 11.85458172 -6.73483905 10.20315111 -7.34375 6.8203125 C-6.78125 3.9453125 -6.78125 3.9453125 -5.15625 1.5078125 C-2.78125 -0.0546875 -2.78125 -0.0546875 0 0 Z M-4.78125 4.9453125 C-4.74287395 8.67418546 -3.79283314 9.93274925 -1.2421875 12.69921875 C0.30062146 14.13211257 1.86981747 15.53092354 3.4453125 16.92773438 C7.1893097 20.41335677 7.1893097 20.41335677 7.33203125 22.9921875 C5.82437089 25.63720568 3.96760587 27.51642002 1.78125 29.6328125 C0.97816406 30.42042969 0.17507812 31.20804688 -0.65234375 32.01953125 C-2.78125 33.9453125 -2.78125 33.9453125 -4.78125 34.9453125 C-4.40220792 38.23607246 -4.40220792 38.23607246 -2.78125 40.9453125 C-0.50940555 41.53356599 -0.50940555 41.53356599 2.21875 40.9453125 C4.59102422 39.19914949 6.53335846 37.1009962 8.53125 34.9453125 C9.08103516 34.37296875 9.63082031 33.800625 10.19726562 33.2109375 C11.5493441 31.80007301 12.88563335 30.37410738 14.21875 28.9453125 C18.00318167 32.11187777 21.51515808 35.23965035 24.84375 38.8828125 C26.49488302 40.65352002 26.49488302 40.65352002 28.21875 41.9453125 C31.05161383 42.14934025 31.05161383 42.14934025 33.21875 40.9453125 C34.43277286 39.91570909 34.43277286 39.91570909 34.65625 37.77734375 C33.99187473 33.47670024 31.32317855 31.51000247 28.21875 28.6328125 C27.64640625 28.08302734 27.0740625 27.53324219 26.484375 26.96679688 C25.07351051 25.6147184 23.64754488 24.27842915 22.21875 22.9453125 C24.20588353 17.97173551 28.31258078 14.99746843 32.19921875 11.48046875 C34.55006989 9.11610556 34.55006989 9.11610556 34.01953125 6.12890625 C33.62314453 5.04802734 33.62314453 5.04802734 33.21875 3.9453125 C31.04644618 2.90650102 31.04644618 2.90650102 28.21875 2.9453125 C25.77968575 4.59898102 23.88664648 6.71472352 21.90625 8.8828125 C21.35646484 9.45966797 20.80667969 10.03652344 20.24023438 10.63085938 C18.88583491 12.05592316 17.55040356 13.49897108 16.21875 14.9453125 C11.27024035 12.9567659 8.28315017 8.91357606 4.75390625 5.0625 C2.41370301 2.74092792 2.41370301 2.74092792 -0.47265625 2.515625 C-2.96795252 2.7548285 -2.96795252 2.7548285 -4.78125 4.9453125 Z " fill="#FFF2EA" transform="translate(14.78125,8.0546875)"/>
<path d="M0 0 C0 3 0 3 -1.96875 5.26171875 C-3.22171875 6.46248047 -3.22171875 6.46248047 -4.5 7.6875 C-5.3353125 8.49574219 -6.170625 9.30398437 -7.03125 10.13671875 C-7.6809375 10.75160156 -8.330625 11.36648437 -9 12 C-6.17173995 15.37253003 -3.37365614 18.6429508 -0.1875 21.6875 C3 25.05714286 3 25.05714286 3 28 C1.85213059 30.24356294 0.7904233 32.2095767 -1 34 C-3.5625 34.5 -3.5625 34.5 -7 34 C-9.17043286 32.45695789 -11.04975023 30.76220224 -12.97265625 28.921875 C-15.19576402 26.81442024 -17.60799429 24.91360457 -20 23 C-23.3 26.3 -26.6 29.6 -30 33 C-30.66 32.67 -31.32 32.34 -32 32 C-30.09797311 29.96339574 -28.18061509 27.94668664 -26.25 25.9375 C-25.71117187 25.35677734 -25.17234375 24.77605469 -24.6171875 24.17773438 C-23.015625 22.52734375 -23.015625 22.52734375 -20 20 C-14.65131784 20.51699443 -11.91154509 25.17753392 -8.53515625 28.9453125 C-6.17702561 31.3338925 -6.17702561 31.3338925 -3.18359375 30.8046875 C-2.46300781 30.53914063 -1.74242188 30.27359375 -1 30 C-0.5369126 27.74686982 -0.5369126 27.74686982 -1 25 C-2.78663019 22.8508231 -4.46395503 21.06096153 -6.5 19.1875 C-7.02464844 18.68541016 -7.54929687 18.18332031 -8.08984375 17.66601562 C-9.38222532 16.43237867 -10.68969599 15.21458375 -12 14 C-10.41332422 10.09714233 -7.86649519 7.66479018 -4.875 4.75 C-3.96492188 3.85796875 -3.05484375 2.9659375 -2.1171875 2.046875 C-1.41851562 1.37140625 -0.71984375 0.6959375 0 0 Z " fill="#FFFCFB" transform="translate(49,18)"/>
</svg>
