<?xml version="1.0" encoding="UTF-8"?>
<svg version="1.1" xmlns="http://www.w3.org/2000/svg" width="52" height="52">
<path d="M0 0 C0.72252457 -0.00570007 1.44504913 -0.01140015 2.18946838 -0.01727295 C3.71850113 -0.02672218 5.24755424 -0.03325663 6.77661133 -0.03710938 C9.11640866 -0.04682312 11.45533048 -0.07784877 13.79492188 -0.109375 C15.2799427 -0.11590437 16.7649698 -0.1211551 18.25 -0.125 C18.95007675 -0.1373468 19.6501535 -0.1496936 20.3714447 -0.16241455 C25.22230626 -0.14015484 25.22230626 -0.14015484 27.37677002 1.43644714 C29.06652123 3.7072244 29.06587539 5.01161516 29.0637207 7.82641602 C29.07306389 9.22785606 29.07306389 9.22785606 29.08259583 10.65760803 C29.07338608 11.66391769 29.06417633 12.67022736 29.0546875 13.70703125 C29.05543526 15.25837013 29.05543526 15.25837013 29.05619812 16.84104919 C29.05385723 19.0274345 29.04412784 21.21382248 29.02758789 23.40014648 C29.0039744 26.75594027 29.00702954 30.11094103 29.01367188 33.46679688 C29.00809599 35.58854643 29.00098668 37.71029262 28.9921875 39.83203125 C28.99355461 41.34453209 28.99355461 41.34453209 28.99494934 42.8875885 C28.98541733 43.81872971 28.97588531 44.74987091 28.96606445 45.70922852 C28.96145706 46.53068863 28.95684967 47.35214874 28.95210266 48.19850159 C28.69140625 50.203125 28.69140625 50.203125 26.69140625 52.203125 C21.99515091 53.14237607 19.47422444 51.61056858 15.62890625 49.140625 C14.81292969 48.57214844 13.99695313 48.00367188 13.15625 47.41796875 C10.76475805 45.98609087 10.76475805 45.98609087 8.12890625 46.359375 C5.64737559 47.21836638 3.88018928 48.23939731 1.75390625 49.765625 C-1.74053961 52.04031145 -4.05730924 52.99406165 -8.30859375 52.203125 C-10.35203782 50.63579636 -11.20533418 49.75616263 -11.68281555 47.1988678 C-11.68218613 46.43593918 -11.6815567 45.67301056 -11.6809082 44.88696289 C-11.68713699 44.01918716 -11.69336578 43.15141144 -11.69978333 42.25733948 C-11.69057358 41.32292526 -11.68136383 40.38851105 -11.671875 39.42578125 C-11.6723735 38.46288681 -11.67287201 37.49999237 -11.67338562 36.50791931 C-11.67104477 34.47116025 -11.66131559 32.43439832 -11.64477539 30.39770508 C-11.62121113 27.28114918 -11.62421098 24.1654503 -11.63085938 21.04882812 C-11.62528162 19.0703074 -11.61817113 17.09179028 -11.609375 15.11328125 C-11.61028641 14.18089127 -11.61119781 13.24850128 -11.61213684 12.28785706 C-11.60260483 11.41692917 -11.59307281 10.54600128 -11.58325195 9.64868164 C-11.57864456 8.88495743 -11.57403717 8.12123322 -11.56929016 7.33436584 C-11.2706898 4.89325328 -10.6022386 3.28710787 -9.30859375 1.203125 C-6.32837563 -0.28698406 -3.26935184 0.01978967 0 0 Z " fill="#FF6200" transform="translate(17.30859375,-0.203125)"/>
</svg>
