<?xml version="1.0" encoding="UTF-8"?>
<svg version="1.1" xmlns="http://www.w3.org/2000/svg" width="28" height="29">
<path d="M0 0 C2.7328746 1.08976467 3.3815077 2.36768361 4.84667969 4.89550781 C5.33007812 5.72695312 5.81347656 6.55839844 6.31152344 7.41503906 C6.80265625 8.2903125 7.29378906 9.16558594 7.79980469 10.06738281 C8.30640625 10.9271875 8.81300781 11.78699219 9.33496094 12.67285156 C11.79553195 16.97719277 13.37396763 19.75373409 13.04980469 24.81738281 C10.4625648 26.11100276 8.56867466 25.9468723 5.67480469 25.95019531 C4.60746094 25.95148437 3.54011719 25.95277344 2.44042969 25.95410156 C1.32152344 25.95023438 0.20261719 25.94636719 -0.95019531 25.94238281 C-2.06910156 25.94625 -3.18800781 25.95011719 -4.34082031 25.95410156 C-5.94183594 25.95216797 -5.94183594 25.95216797 -7.57519531 25.95019531 C-8.55746094 25.94906738 -9.53972656 25.94793945 -10.55175781 25.94677734 C-12.95019531 25.81738281 -12.95019531 25.81738281 -14.95019531 24.81738281 C-14.53964568 18.49994567 -12.29606265 14.28418661 -9.01269531 8.94238281 C-8.55701172 8.17152344 -8.10132813 7.40066406 -7.63183594 6.60644531 C-3.46476202 -0.32444191 -3.46476202 -0.32444191 0 0 Z M-1.95019531 6.81738281 C-2.28019531 7.14738281 -2.61019531 7.47738281 -2.95019531 7.81738281 C-2.84835822 9.73162738 -2.84835822 9.73162738 -2.51269531 11.87988281 C-2.32707031 13.17925781 -2.14144531 14.47863281 -1.95019531 15.81738281 C-1.29019531 15.81738281 -0.63019531 15.81738281 0.04980469 15.81738281 C0.37980469 13.17738281 0.70980469 10.53738281 1.04980469 7.81738281 C0.05980469 7.48738281 -0.93019531 7.15738281 -1.95019531 6.81738281 Z M-1.95019531 18.81738281 C-1.95019531 19.80738281 -1.95019531 20.79738281 -1.95019531 21.81738281 C-0.96019531 21.48738281 0.02980469 21.15738281 1.04980469 20.81738281 C0.71980469 20.15738281 0.38980469 19.49738281 0.04980469 18.81738281 C-0.61019531 18.81738281 -1.27019531 18.81738281 -1.95019531 18.81738281 Z " fill="#FFFFFF" transform="translate(14.9501953125,2.1826171875)"/>
</svg>
