<svg width="11" height="11" viewBox="0 0 11 11" fill="none" xmlns="http://www.w3.org/2000/svg">
<path fill-rule="evenodd" clip-rule="evenodd" d="M8.10386 0.660386L5.39315 3.36896L2.68243 0.658243C2.53962 0.50951 2.36855 0.390782 2.17926 0.309018C1.98996 0.227254 1.78625 0.184098 1.58007 0.182081C1.37388 0.180064 1.16936 0.219226 0.978507 0.297272C0.78765 0.375317 0.614293 0.490676 0.468597 0.636586C0.3229 0.782496 0.207796 0.956023 0.130031 1.14699C0.0522652 1.33796 0.0134035 1.54254 0.015723 1.74872C0.0180426 1.9549 0.0614968 2.15855 0.143539 2.34772C0.225581 2.5369 0.34456 2.70779 0.493502 2.85039L3.20315 5.5611L0.495645 8.2686C0.212581 8.56106 0.0557839 8.95304 0.0590569 9.36004C0.06233 9.76704 0.225411 10.1565 0.513142 10.4443C0.800872 10.7322 1.1902 10.8955 1.5972 10.8989C2.0042 10.9024 2.39626 10.7458 2.68886 10.4629L5.39315 7.75003L8.10172 10.4597C8.24464 10.6081 8.41573 10.7266 8.60497 10.8081C8.79421 10.8897 8.99781 10.9327 9.20387 10.9346C9.40993 10.9366 9.61431 10.8975 9.80506 10.8195C9.99581 10.7415 10.1691 10.6263 10.3148 10.4806C10.4605 10.3349 10.5757 10.1616 10.6537 9.97087C10.7316 9.78012 10.7708 9.57574 10.7688 9.36968C10.7669 9.16362 10.7239 8.96002 10.6423 8.77078C10.5608 8.58154 10.4423 8.41045 10.2939 8.26753L7.58957 5.56217L10.2971 2.85467C10.5801 2.56221 10.7369 2.17023 10.7337 1.76323C10.7304 1.35623 10.5673 0.966816 10.2796 0.678945C9.99185 0.391074 9.60251 0.227803 9.19552 0.224331C8.78852 0.220859 8.39646 0.377465 8.10386 0.660386V0.660386Z" fill="white"/>
</svg>
