<svg width="13" height="13" viewBox="0 0 13 13" fill="none" xmlns="http://www.w3.org/2000/svg">
<path d="M11.6077 5.10725H7.98632C7.93814 5.104 7.89277 5.08338 7.85862 5.04924C7.82447 5.01509 7.80386 4.96972 7.8006 4.92154V1.39297C7.81422 1.21442 7.79065 1.03499 7.73137 0.866013C7.6721 0.69704 7.5784 0.542204 7.45622 0.411295C7.33404 0.280386 7.18603 0.176251 7.02154 0.105476C6.85705 0.0346998 6.67967 -0.00117748 6.5006 0.000112058C6.31675 -0.00328992 6.13411 0.0304131 5.96358 0.0992063C5.79305 0.167999 5.63815 0.27047 5.50813 0.400493C5.3781 0.530516 5.27563 0.685421 5.20684 0.855947C5.13805 1.02647 5.10434 1.20912 5.10775 1.39297V5.0144C5.10449 5.06258 5.08387 5.10795 5.04973 5.14209C5.01558 5.17624 4.97021 5.19685 4.92203 5.20011H1.39346C1.2133 5.17852 1.03059 5.19653 0.858117 5.25289C0.68564 5.30925 0.527551 5.40259 0.3949 5.5264C0.262249 5.65021 0.158236 5.80149 0.0901311 5.96968C0.0220257 6.13786 -0.00852901 6.31889 0.000602536 6.50011C0.0095535 6.8667 0.159174 7.2158 0.41847 7.4751C0.677767 7.7344 1.02687 7.88402 1.39346 7.89297H5.01489C5.06307 7.89623 5.10844 7.91684 5.14258 7.95099C5.17673 7.98513 5.19734 8.0305 5.2006 8.07868V11.7001C5.19613 11.872 5.22671 12.0431 5.29045 12.2028C5.3542 12.3626 5.4498 12.5077 5.57142 12.6293C5.69303 12.7509 5.83813 12.8465 5.99788 12.9103C6.15762 12.974 6.32867 13.0046 6.5006 13.0001C6.86719 12.9912 7.2163 12.8415 7.47559 12.5822C7.73489 12.3229 7.88451 11.9738 7.89346 11.6073V7.98583C7.89672 7.93764 7.91733 7.89228 7.95148 7.85813C7.98563 7.82398 8.03099 7.80337 8.07917 7.80011H11.7006C12.0432 7.793 12.3697 7.65375 12.612 7.41148C12.8542 7.16921 12.9935 6.84266 13.0006 6.50011C13.0158 6.31336 12.9901 6.12554 12.9255 5.94967C12.8608 5.77381 12.7587 5.6141 12.6262 5.48161C12.4938 5.34912 12.334 5.24702 12.1582 5.18238C11.9823 5.11774 11.7945 5.0921 11.6077 5.10725Z" fill="white"/>
</svg>
